<?xml version="1.0" standalone="no"?>
<!DOCTYPE svg PUBLIC "-//W3C//DTD SVG 20010904//EN"
 "http://www.w3.org/TR/2001/REC-SVG-20010904/DTD/svg10.dtd">
<svg version="1.0" xmlns="http://www.w3.org/2000/svg"
 width="250.000000pt" height="54.000000pt" viewBox="0 0 250.000000 54.000000"
 preserveAspectRatio="xMidYMid meet">

<g transform="translate(0.000000,54.000000) scale(0.100000,-0.100000)"
fill="#000000" stroke="none">
<path d="M505 394 c-13 -13 -16 -38 -14 -135 1 -66 5 -119 10 -119 5 0 36 14
69 30 39 20 74 30 103 30 30 0 53 7 71 21 23 18 26 27 26 84 0 57 -3 66 -26
84 -23 18 -41 21 -125 21 -76 0 -101 -3 -114 -16z"/>
</g>
</svg>
